REM DIRINDEX 1\2,1\3,1\4,1\6,1\5\7,1\5\8
REM DIRNAME cjc114,folder01,folder02,folder03,folder04,folder05,folder06,folder07
TITLE ""
FILE "DB4500_5th_5C_04.mp3" MP3
  TRACK 01 AUDIO
    TITLE "2:cjc114_3327"
    INDEX 01 00:00:00
  TRACK 02 AUDIO
    TITLE "0:"
    INDEX 01 00:01:15
  TRACK 03 AUDIO
    TITLE "3:cjc114_3328"
    INDEX 01 00:01:28
  TRACK 04 AUDIO
    TITLE "0:"
    INDEX 01 00:02:34
  TRACK 05 AUDIO
    TITLE "4:cjc114_3329"
    INDEX 01 00:02:47
  TRACK 06 AUDIO
    TITLE "0:"
    INDEX 01 00:05:09
  TRACK 07 AUDIO
    TITLE "2:cjc114_3330"
    INDEX 01 00:05:44
  TRACK 08 AUDIO
    TITLE "0:"
    INDEX 01 00:06:45
  TRACK 09 AUDIO
    TITLE "3:cjc114_3331"
    INDEX 01 00:06:59
  TRACK 10 AUDIO
    TITLE "0:"
    INDEX 01 00:10:18
  TRACK 11 AUDIO
    TITLE "4:cjc114_3332"
    INDEX 01 00:10:33
  TRACK 12 AUDIO
    TITLE "0:"
    INDEX 01 00:13:32
  TRACK 13 AUDIO
    TITLE "2:cjc114_3333"
    INDEX 01 00:13:71
  TRACK 14 AUDIO
    TITLE "0:"
    INDEX 01 00:15:01
  TRACK 15 AUDIO
    TITLE "3:cjc114_3334"
    INDEX 01 00:15:17
  TRACK 16 AUDIO
    TITLE "0:"
    INDEX 01 00:16:34
  TRACK 17 AUDIO
    TITLE "4:cjc114_3335"
    INDEX 01 00:16:48
  TRACK 18 AUDIO
    TITLE "0:"
    INDEX 01 00:19:36
  TRACK 19 AUDIO
    TITLE "2:cjc114_3336"
    INDEX 01 00:19:69
  TRACK 20 AUDIO
    TITLE "0:"
    INDEX 01 00:20:69
  TRACK 21 AUDIO
    TITLE "3:cjc114_3337"
    INDEX 01 00:21:09
  TRACK 22 AUDIO
    TITLE "0:"
    INDEX 01 00:22:19
  TRACK 23 AUDIO
    TITLE "4:cjc114_3338"
    INDEX 01 00:22:32
  TRACK 24 AUDIO
    TITLE "0:"
    INDEX 01 00:24:51
  TRACK 25 AUDIO
    TITLE "2:cjc114_3339"
    INDEX 01 00:25:13
  TRACK 26 AUDIO
    TITLE "0:"
    INDEX 01 00:26:17
  TRACK 27 AUDIO
    TITLE "3:cjc114_3340"
    INDEX 01 00:26:26
  TRACK 28 AUDIO
    TITLE "0:"
    INDEX 01 00:27:36
  TRACK 29 AUDIO
    TITLE "4:cjc114_3341"
    INDEX 01 00:27:49
  TRACK 30 AUDIO
    TITLE "0:"
    INDEX 01 00:30:36
  TRACK 31 AUDIO
    TITLE "2:cjc114_3342"
    INDEX 01 00:30:73
  TRACK 32 AUDIO
    TITLE "0:"
    INDEX 01 00:32:17
  TRACK 33 AUDIO
    TITLE "3:cjc114_3343"
    INDEX 01 00:32:33
  TRACK 34 AUDIO
    TITLE "0:"
    INDEX 01 00:33:52
  TRACK 35 AUDIO
    TITLE "4:cjc114_3344"
    INDEX 01 00:33:68
  TRACK 36 AUDIO
    TITLE "0:"
    INDEX 01 00:38:08
  TRACK 37 AUDIO
    TITLE "2:cjc114_3345"
    INDEX 01 00:38:47
  TRACK 38 AUDIO
    TITLE "0:"
    INDEX 01 00:39:62
  TRACK 39 AUDIO
    TITLE "3:cjc114_3346"
    INDEX 01 00:40:03
  TRACK 40 AUDIO
    TITLE "0:"
    INDEX 01 00:41:22
  TRACK 41 AUDIO
    TITLE "4:cjc114_3347"
    INDEX 01 00:41:34
  TRACK 42 AUDIO
    TITLE "0:"
    INDEX 01 00:45:49
  TRACK 43 AUDIO
    TITLE "2:cjc114_3348"
    INDEX 01 00:46:11
  TRACK 44 AUDIO
    TITLE "0:"
    INDEX 01 00:47:17
  TRACK 45 AUDIO
    TITLE "3:cjc114_3349"
    INDEX 01 00:47:32
  TRACK 46 AUDIO
    TITLE "0:"
    INDEX 01 00:48:69
  TRACK 47 AUDIO
    TITLE "4:cjc114_3350"
    INDEX 01 00:49:08
  TRACK 48 AUDIO
    TITLE "0:"
    INDEX 01 00:52:28
  TRACK 49 AUDIO
    TITLE "2:cjc114_3351"
    INDEX 01 00:52:65
  TRACK 50 AUDIO
    TITLE "0:"
    INDEX 01 00:54:23
  TRACK 51 AUDIO
    TITLE "3:cjc114_3352"
    INDEX 01 00:54:36
  TRACK 52 AUDIO
    TITLE "0:"
    INDEX 01 00:55:55
  TRACK 53 AUDIO
    TITLE "4:cjc114_3353"
    INDEX 01 00:55:67
  TRACK 54 AUDIO
    TITLE "0:"
    INDEX 01 00:59:45
  TRACK 55 AUDIO
    TITLE "2:cjc114_3354"
    INDEX 01 01:00:25
  TRACK 56 AUDIO
    TITLE "0:"
    INDEX 01 01:01:38
  TRACK 57 AUDIO
    TITLE "3:cjc114_3355"
    INDEX 01 01:01:52
  TRACK 58 AUDIO
    TITLE "0:"
    INDEX 01 01:02:71
  TRACK 59 AUDIO
    TITLE "4:cjc114_3356"
    INDEX 01 01:03:10
  TRACK 60 AUDIO
    TITLE "0:"
    INDEX 01 01:07:41
  TRACK 61 AUDIO
    TITLE "2:cjc114_3357"
    INDEX 01 01:08:03
  TRACK 62 AUDIO
    TITLE "0:"
    INDEX 01 01:09:14
  TRACK 63 AUDIO
    TITLE "3:cjc114_3358"
    INDEX 01 01:09:26
  TRACK 64 AUDIO
    TITLE "0:"
    INDEX 01 01:10:55
  TRACK 65 AUDIO
    TITLE "4:cjc114_3359"
    INDEX 01 01:10:73
  TRACK 66 AUDIO
    TITLE "0:"
    INDEX 01 01:14:21
  TRACK 67 AUDIO
    TITLE "2:cjc114_3360"
    INDEX 01 01:14:59
  TRACK 68 AUDIO
    TITLE "0:"
    INDEX 01 01:15:60
  TRACK 69 AUDIO
    TITLE "3:cjc114_3361"
    INDEX 01 01:16:03
  TRACK 70 AUDIO
    TITLE "0:"
    INDEX 01 01:17:22
  TRACK 71 AUDIO
    TITLE "4:cjc114_3362"
    INDEX 01 01:17:33
  TRACK 72 AUDIO
    TITLE "0:"
    INDEX 01 01:20:18
